<svg xmlns="http://www.w3.org/2000/svg" xmlns:xlink="http://www.w3.org/1999/xlink" width="500" zoomAndPan="magnify" viewBox="0 0 375 374.999991" height="500" preserveAspectRatio="xMidYMid meet" version="1.0"><defs><clipPath id="34e7cb1f9c"><path d="M 43.085938 49 L 322 49 L 322 340 L 43.085938 340 Z M 43.085938 49 " clip-rule="nonzero"/></clipPath><clipPath id="1a1e6e6e29"><path d="M 93 36 L 331.835938 36 L 331.835938 285 L 93 285 Z M 93 36 " clip-rule="nonzero"/></clipPath></defs><path fill="#ff914d" d="M 375 337.5 C 375 358.210938 358.210938 375 337.5 375 L 37.5 375 C 16.789062 375 0 358.210938 0 337.5 L 0 37.5 C 0 16.789062 16.789062 0 37.5 0 L 337.5 0 C 358.210938 0 375 16.789062 375 37.5 Z M 375 337.5 " fill-opacity="1" fill-rule="nonzero"/><g clip-path="url(#34e7cb1f9c)"><path fill="#ffffff" d="M 315.34375 134.492188 C 314.917969 134.492188 314.496094 134.535156 314.074219 134.617188 C 313.65625 134.699219 313.25 134.824219 312.855469 134.988281 C 312.460938 135.148438 312.085938 135.351562 311.730469 135.585938 C 311.375 135.824219 311.046875 136.09375 310.746094 136.394531 C 310.445312 136.699219 310.175781 137.027344 309.9375 137.378906 C 309.699219 137.734375 309.5 138.109375 309.335938 138.503906 C 309.171875 138.898438 309.050781 139.304688 308.964844 139.722656 C 308.882812 140.144531 308.839844 140.566406 308.839844 140.992188 L 308.839844 309.179688 C 308.839844 309.738281 308.8125 310.296875 308.757812 310.851562 C 308.703125 311.40625 308.621094 311.957031 308.511719 312.503906 C 308.402344 313.050781 308.265625 313.589844 308.105469 314.125 C 307.941406 314.660156 307.753906 315.183594 307.539062 315.699219 C 307.328125 316.214844 307.089844 316.71875 306.824219 317.210938 C 306.5625 317.703125 306.273438 318.179688 305.964844 318.644531 C 305.65625 319.109375 305.324219 319.554688 304.96875 319.988281 C 304.613281 320.417969 304.238281 320.832031 303.84375 321.226562 C 303.449219 321.621094 303.039062 321.996094 302.605469 322.347656 C 302.175781 322.703125 301.726562 323.035156 301.261719 323.34375 C 300.800781 323.65625 300.320312 323.941406 299.828125 324.207031 C 299.335938 324.46875 298.832031 324.707031 298.316406 324.921875 C 297.800781 325.136719 297.277344 325.324219 296.742188 325.484375 C 296.207031 325.648438 295.667969 325.785156 295.121094 325.894531 C 294.574219 326.003906 294.023438 326.085938 293.464844 326.140625 C 292.910156 326.195312 292.355469 326.222656 291.796875 326.222656 L 73.074219 326.222656 C 72.515625 326.222656 71.960938 326.195312 71.40625 326.140625 C 70.847656 326.085938 70.296875 326.003906 69.75 325.894531 C 69.203125 325.785156 68.660156 325.648438 68.125 325.488281 C 67.59375 325.324219 67.066406 325.136719 66.550781 324.921875 C 66.035156 324.710938 65.53125 324.46875 65.039062 324.207031 C 64.546875 323.945312 64.070312 323.65625 63.605469 323.347656 C 63.140625 323.039062 62.691406 322.703125 62.261719 322.351562 C 61.828125 321.996094 61.417969 321.621094 61.023438 321.226562 C 60.628906 320.832031 60.253906 320.421875 59.898438 319.988281 C 59.542969 319.558594 59.210938 319.109375 58.902344 318.644531 C 58.589844 318.183594 58.304688 317.703125 58.039062 317.210938 C 57.777344 316.71875 57.539062 316.214844 57.324219 315.699219 C 57.109375 315.183594 56.921875 314.660156 56.761719 314.125 C 56.597656 313.59375 56.460938 313.050781 56.351562 312.503906 C 56.242188 311.957031 56.160156 311.40625 56.105469 310.851562 C 56.050781 310.296875 56.023438 309.738281 56.023438 309.179688 L 56.023438 79.800781 C 56.023438 79.242188 56.050781 78.6875 56.105469 78.132812 C 56.160156 77.574219 56.242188 77.023438 56.351562 76.476562 C 56.460938 75.929688 56.597656 75.390625 56.761719 74.855469 C 56.921875 74.320312 57.109375 73.796875 57.324219 73.28125 C 57.539062 72.765625 57.777344 72.261719 58.039062 71.769531 C 58.304688 71.277344 58.589844 70.800781 58.902344 70.335938 C 59.210938 69.871094 59.542969 69.425781 59.898438 68.992188 C 60.253906 68.5625 60.628906 68.148438 61.023438 67.753906 C 61.417969 67.359375 61.828125 66.984375 62.261719 66.632812 C 62.691406 66.277344 63.140625 65.945312 63.605469 65.636719 C 64.070312 65.324219 64.546875 65.039062 65.039062 64.773438 C 65.53125 64.511719 66.035156 64.273438 66.550781 64.058594 C 67.066406 63.84375 67.59375 63.65625 68.125 63.496094 C 68.660156 63.332031 69.203125 63.195312 69.75 63.085938 C 70.296875 62.980469 70.847656 62.894531 71.40625 62.839844 C 71.960938 62.785156 72.515625 62.757812 73.074219 62.757812 L 222.664062 62.757812 C 223.09375 62.757812 223.515625 62.714844 223.933594 62.632812 C 224.355469 62.550781 224.761719 62.425781 225.15625 62.261719 C 225.550781 62.101562 225.925781 61.898438 226.277344 61.664062 C 226.632812 61.425781 226.960938 61.15625 227.265625 60.855469 C 227.566406 60.550781 227.835938 60.222656 228.074219 59.867188 C 228.308594 59.515625 228.511719 59.140625 228.675781 58.746094 C 228.835938 58.351562 228.960938 57.945312 229.042969 57.527344 C 229.128906 57.105469 229.167969 56.683594 229.167969 56.257812 C 229.167969 55.832031 229.128906 55.410156 229.042969 54.988281 C 228.960938 54.570312 228.835938 54.164062 228.675781 53.769531 C 228.511719 53.375 228.308594 53 228.074219 52.648438 C 227.835938 52.292969 227.566406 51.964844 227.265625 51.660156 C 226.960938 51.359375 226.632812 51.089844 226.277344 50.851562 C 225.925781 50.617188 225.550781 50.414062 225.15625 50.253906 C 224.761719 50.089844 224.351562 49.964844 223.933594 49.882812 C 223.515625 49.800781 223.09375 49.757812 222.664062 49.757812 L 73.074219 49.757812 C 72.089844 49.757812 71.109375 49.808594 70.128906 49.90625 C 69.152344 50.003906 68.179688 50.148438 67.214844 50.339844 C 66.25 50.53125 65.292969 50.773438 64.351562 51.058594 C 63.410156 51.34375 62.484375 51.675781 61.578125 52.054688 C 60.667969 52.429688 59.78125 52.851562 58.910156 53.316406 C 58.042969 53.777344 57.199219 54.285156 56.382812 54.832031 C 55.566406 55.378906 54.773438 55.964844 54.015625 56.585938 C 53.253906 57.210938 52.527344 57.871094 51.828125 58.566406 C 51.132812 59.261719 50.472656 59.988281 49.847656 60.75 C 49.226562 61.511719 48.640625 62.300781 48.09375 63.117188 C 47.542969 63.933594 47.039062 64.777344 46.574219 65.644531 C 46.109375 66.511719 45.691406 67.402344 45.3125 68.308594 C 44.9375 69.21875 44.605469 70.140625 44.316406 71.082031 C 44.03125 72.023438 43.792969 72.976562 43.597656 73.941406 C 43.40625 74.90625 43.261719 75.878906 43.164062 76.859375 C 43.066406 77.835938 43.015625 78.816406 43.015625 79.800781 L 43.015625 309.179688 C 43.015625 310.164062 43.066406 311.144531 43.164062 312.125 C 43.261719 313.101562 43.40625 314.074219 43.597656 315.039062 C 43.792969 316.003906 44.03125 316.957031 44.316406 317.898438 C 44.605469 318.839844 44.9375 319.765625 45.3125 320.671875 C 45.691406 321.582031 46.109375 322.46875 46.574219 323.335938 C 47.039062 324.203125 47.542969 325.046875 48.09375 325.863281 C 48.640625 326.683594 49.226562 327.472656 49.847656 328.230469 C 50.472656 328.992188 51.132812 329.71875 51.828125 330.414062 C 52.527344 331.109375 53.253906 331.769531 54.015625 332.394531 C 54.773438 333.019531 55.566406 333.605469 56.382812 334.152344 C 57.199219 334.699219 58.042969 335.203125 58.910156 335.667969 C 59.78125 336.132812 60.667969 336.550781 61.578125 336.929688 C 62.484375 337.304688 63.410156 337.636719 64.351562 337.921875 C 65.292969 338.210938 66.25 338.449219 67.214844 338.640625 C 68.179688 338.835938 69.152344 338.980469 70.128906 339.078125 C 71.109375 339.175781 72.089844 339.222656 73.074219 339.222656 L 291.796875 339.222656 C 292.78125 339.222656 293.761719 339.171875 294.742188 339.078125 C 295.71875 338.980469 296.691406 338.832031 297.65625 338.640625 C 298.621094 338.449219 299.574219 338.207031 300.515625 337.921875 C 301.457031 337.636719 302.382812 337.304688 303.292969 336.925781 C 304.203125 336.550781 305.089844 336.128906 305.957031 335.664062 C 306.824219 335.203125 307.667969 334.695312 308.484375 334.148438 C 309.304688 333.601562 310.09375 333.015625 310.851562 332.394531 C 311.613281 331.769531 312.34375 331.109375 313.039062 330.414062 C 313.734375 329.71875 314.394531 328.988281 315.019531 328.230469 C 315.640625 327.46875 316.226562 326.679688 316.773438 325.863281 C 317.320312 325.046875 317.828125 324.203125 318.292969 323.335938 C 318.753906 322.46875 319.175781 321.582031 319.554688 320.671875 C 319.929688 319.761719 320.261719 318.839844 320.546875 317.898438 C 320.835938 316.957031 321.074219 316.003906 321.265625 315.039062 C 321.457031 314.074219 321.605469 313.101562 321.703125 312.125 C 321.796875 311.144531 321.847656 310.164062 321.847656 309.179688 L 321.847656 140.992188 C 321.847656 140.566406 321.808594 140.144531 321.722656 139.722656 C 321.640625 139.304688 321.519531 138.898438 321.355469 138.503906 C 321.191406 138.109375 320.992188 137.734375 320.753906 137.378906 C 320.515625 137.027344 320.246094 136.699219 319.945312 136.394531 C 319.644531 136.09375 319.3125 135.824219 318.960938 135.585938 C 318.605469 135.351562 318.230469 135.148438 317.835938 134.988281 C 317.441406 134.824219 317.03125 134.699219 316.613281 134.617188 C 316.195312 134.535156 315.773438 134.492188 315.34375 134.492188 Z M 315.34375 134.492188 " fill-opacity="1" fill-rule="nonzero"/></g><g clip-path="url(#1a1e6e6e29)"><path fill="#ffffff" d="M 329.75 82.300781 L 280.898438 38.496094 C 280.589844 38.21875 280.257812 37.972656 279.898438 37.761719 C 279.542969 37.546875 279.171875 37.367188 278.78125 37.226562 C 278.390625 37.082031 277.992188 36.980469 277.582031 36.914062 C 277.171875 36.847656 276.757812 36.824219 276.34375 36.835938 C 275.925781 36.847656 275.515625 36.902344 275.113281 36.996094 C 274.707031 37.085938 274.316406 37.214844 273.933594 37.382812 C 273.554688 37.550781 273.195312 37.753906 272.851562 37.988281 C 272.511719 38.226562 272.195312 38.492188 271.90625 38.789062 L 104.5 209.695312 C 104.4375 209.757812 104.402344 209.847656 104.34375 209.914062 C 104.296875 209.964844 104.234375 209.984375 104.1875 210.035156 C 104.078125 210.167969 104.046875 210.332031 103.949219 210.46875 C 103.613281 210.925781 103.34375 211.414062 103.140625 211.9375 C 103.039062 212.195312 102.957031 212.457031 102.894531 212.726562 C 102.847656 212.921875 102.742188 213.097656 102.714844 213.300781 L 93.378906 277.207031 C 93.3125 277.667969 93.292969 278.132812 93.324219 278.597656 C 93.359375 279.0625 93.4375 279.519531 93.570312 279.96875 C 93.699219 280.414062 93.878906 280.84375 94.101562 281.253906 C 94.324219 281.664062 94.585938 282.046875 94.890625 282.398438 C 95.199219 282.75 95.535156 283.066406 95.910156 283.347656 C 96.285156 283.628906 96.683594 283.863281 97.105469 284.058594 C 97.53125 284.253906 97.972656 284.398438 98.429688 284.5 C 98.882812 284.597656 99.347656 284.648438 99.8125 284.648438 C 100.507812 284.644531 101.183594 284.539062 101.84375 284.324219 L 162.910156 264.21875 C 163.015625 264.183594 163.082031 264.085938 163.1875 264.046875 C 163.773438 263.789062 164.308594 263.453125 164.792969 263.035156 C 165.0625 262.890625 165.320312 262.730469 165.5625 262.550781 L 330.09375 91.644531 C 330.394531 91.332031 330.664062 90.988281 330.894531 90.621094 C 331.128906 90.253906 331.324219 89.863281 331.480469 89.457031 C 331.636719 89.050781 331.75 88.628906 331.820312 88.199219 C 331.890625 87.769531 331.917969 87.335938 331.902344 86.902344 C 331.886719 86.464844 331.828125 86.035156 331.722656 85.609375 C 331.621094 85.1875 331.476562 84.777344 331.292969 84.382812 C 331.109375 83.988281 330.886719 83.613281 330.625 83.265625 C 330.367188 82.914062 330.074219 82.59375 329.75 82.300781 Z M 160.421875 249.140625 L 118.683594 213.796875 L 240.136719 89.804688 L 278.816406 126.160156 Z M 113.890625 226.773438 L 147.816406 255.5 L 107.769531 268.683594 Z M 287.832031 116.792969 L 249.234375 80.519531 L 276.84375 52.328125 L 316.050781 87.480469 Z M 287.832031 116.792969 " fill-opacity="1" fill-rule="nonzero"/></g></svg>